<svg xmlns="http://www.w3.org/2000/svg" data-name="Layer 1" viewBox="0 0 512 512"><path fill="#676e87" d="M204.38 7.5h103.24a40 40 0 0 1 40 40v62.61H164.38V47.5a40 40 0 0 1 40-40Z"/><path fill="#f66" d="M453.32 504.5H58.68a35.82 35.82 0 0 1-35.92-35.71v-48.34l2.69-27.66c.07-.81.17-1.61.26-2.41 4.49-35.88 31.43-65 66.75-73.64l87.93-16L256 187.47 332.5 300l8.74 1.69 78.3 15.1c35.31 8.64 62.26 37.76 66.73 73.64.11.8.2 1.6.28 2.41l2.69 27.66v48.34a35.82 35.82 0 0 1-35.92 35.66Z"/><path fill="#ffcd85" d="m189.19 287.54 12.32-18.46L256 202.47l55.26 66.14 12.33 18.24L256 346.48l-66.81-58.94z"/><path fill="#ffc166" d="M311.26 268.61 256 202.47l-14.84 18.14 40.1 48 1 1.45a23 23 0 0 1-3.84 30.19l-37.4 33 15 13.23 67.59-59.62Z"/><path fill="#ffe966" d="M295.76 504.5 266.7 390.59l-21.41.01-29.05 113.9h79.52z"/><path fill="#ffe236" d="m284.2 373.44-18.48 18.12a13.89 13.89 0 0 1-19.44 0l-18.45-18.08 28.17-27Z"/><path fill="#ff4e4e" d="m309.78 388.29 53.34-77.35a6 6 0 0 0-1.08-8l-25-21.11a6.22 6.22 0 0 0-7.84.09L256 346.47l44.7 42.75a6 6 0 0 0 9.08-.93zm-107.56 0-53.34-77.35a6 6 0 0 1 1.07-8l25.05-21.1a6.22 6.22 0 0 1 7.84.09L256 346.47l-44.7 42.75a6 6 0 0 1-9.08-.93z"/><path fill="#ffcd85" d="M271.11 280h-30.23a76.5 76.5 0 0 1-76.5-76.5v-107c13.68 3.71 49.32 11.33 88.39-4.45a133.48 133.48 0 0 0 40.37-25.67 52.4 52.4 0 0 0 54.48 30.12v107a76.51 76.51 0 0 1-76.51 76.5Z"/><path fill="#ffc166" d="M317 91.26a53.29 53.29 0 0 1-23.87-24.87 136.47 136.47 0 0 1-19.57 15A51.74 51.74 0 0 0 287 91.26a53 53 0 0 0 30.61 5.25v107a76.51 76.51 0 0 1-76.5 76.49h30a76.51 76.51 0 0 0 76.51-76.5v-107A53 53 0 0 1 317 91.26Z"/><path fill="#ffcd85" d="M347.62 125.44h18.64a12.91 12.91 0 0 1 12.91 12.91v28.83a12.91 12.91 0 0 1-12.91 12.91h-18.64v-54.65Z"/><path fill="#ffc166" d="M164.38 180.1h-18.64a12.91 12.91 0 0 1-12.91-12.91v-28.83a12.91 12.91 0 0 1 12.91-12.91h18.64v54.65Z"/><path fill="#272a33" d="M496.71 419.72 494 392c-.09-.89-.18-1.77-.29-2.57-4.8-38.42-33.89-70.57-72.4-80l-.36-.08-52.07-10a13.44 13.44 0 0 0-2-2.13l-25.05-21.1a13.78 13.78 0 0 0-16.8-.47l-3.44-5.07a84 84 0 0 0 33.53-67.1v-15.89h11.14a20.43 20.43 0 0 0 20.41-20.41v-28.82a20.44 20.44 0 0 0-20.41-20.42h-11.14V47.5a47.51 47.51 0 0 0-22.05-40.08c-.25-.17-.5-.34-.77-.49A47.27 47.27 0 0 0 307.62 0H204.38a47.56 47.56 0 0 0-47.5 47.5v70.44h-11.14a20.44 20.44 0 0 0-20.42 20.42v28.82a20.43 20.43 0 0 0 20.42 20.41h11.14v15.88a83.93 83.93 0 0 0 34.26 67.64l-3.42 5.13a13.76 13.76 0 0 0-17.55-.13l-25 21.1a13.53 13.53 0 0 0-2.49 2.77l-51.51 9.38-.44.1c-38.5 9.42-67.6 41.56-72.41 80-.11.87-.21 1.75-.29 2.57l-2.69 27.66v49.07A43.36 43.36 0 0 0 58.68 512h394.64a43.36 43.36 0 0 0 43.42-43.21v-48.34c0-.25-.01-.45-.03-.73ZM355.12 132.94h11.14a5.42 5.42 0 0 1 5.41 5.42v28.82a5.41 5.41 0 0 1-5.41 5.41h-11.14Zm-198.24 39.65h-11.14a5.42 5.42 0 0 1-5.42-5.41v-28.82a5.42 5.42 0 0 1 5.42-5.42h11.14Zm176.27 115.82 23 19.39-51.56 74.78-37.51-35.88ZM256 356.85l17.42 16.66-12.95 12.69a6.41 6.41 0 0 1-8.94 0l-12.95-12.69Zm0-20.38-56.93-50.22 4.9-7.34a83.46 83.46 0 0 0 36.91 8.56h30.23a83.46 83.46 0 0 0 37.72-9l4.84 7.11Zm75.53-311a32.36 32.36 0 0 1 8.59 22v41.95a44.68 44.68 0 0 1-37.77-21.69A163 163 0 0 0 322 42.66a162.38 162.38 0 0 0 9.53-17.14Zm-159.65 22A32.54 32.54 0 0 1 204.38 15h103.24A32.29 32.29 0 0 1 319 17a147.41 147.41 0 0 1-9.56 17.56A147.93 147.93 0 0 1 288 60.94a125.3 125.3 0 0 1-38 24.16c-31.05 12.55-60.52 9.51-78.08 5.55Zm0 156V106c19.79 4 50.89 6.28 83.7-7a139.56 139.56 0 0 0 35.56-21 59.57 59.57 0 0 0 49 26.4v99.05a69 69 0 0 1-32.39 58.44 7.14 7.14 0 0 0-.79.47l-.26.2a68.59 68.59 0 0 1-35.57 9.89h-30.25a69.07 69.07 0 0 1-69-68.98Zm7 84.94 5.33 4.71 60.68 53.54-37.52 35.88-51.54-74.74ZM210.42 497h-97.15v-65.4a9 9 0 0 0-18 0V497H58.68a28.35 28.35 0 0 1-28.42-28.21v-48l2.66-27.36c.07-.73.15-1.45.23-2.14 4-32.22 28.49-59.21 60.88-67.23l48.69-8.87L196 392.55a13.47 13.47 0 0 0 9.74 5.76 12.75 12.75 0 0 0 1.38.07 13.52 13.52 0 0 0 9.33-3.74l11.24-10.75 9.23 9Zm15.48 0 24.19-94.84a21.71 21.71 0 0 0 11.82 0L286.1 497Zm255.84-28.21A28.35 28.35 0 0 1 453.32 497h-36.64v-65.4a9 9 0 0 0-18 0V497h-97.1L275 392.93l9.22-9.05 11.25 10.76a13.48 13.48 0 0 0 9.33 3.74 12.88 12.88 0 0 0 1.38-.07 13.47 13.47 0 0 0 9.74-5.76l53.33-77.35c.1-.15.19-.31.28-.46l48.36 9.33c32.42 8 56.88 35 60.91 67.32.1.72.17 1.44.25 2.12l2.65 27.3ZM229.21 224.32a48.9 48.9 0 0 0 26 8h.86a49.59 49.59 0 0 0 26.87-8 8.89 8.89 0 0 0 2.53-12.32 9 9 0 0 0-12.47-2.58 30.84 30.84 0 0 1-33.93 0 9 9 0 0 0-12.41 2.58 8.9 8.9 0 0 0 2.55 12.32Zm66.71-66.53a9 9 0 0 0 9-8.93v-11.52a9 9 0 0 0-18 0v11.52a9 9 0 0 0 9 8.93Zm-79.84 0a9 9 0 0 0 9-8.93v-11.52a9 9 0 0 0-18 0v11.52a9 9 0 0 0 9 8.93Z"/></svg>